<?xml version="1.0" encoding="UTF-8" standalone="no"?>
<!DOCTYPE svg PUBLIC "-//W3C//DTD SVG 1.1//EN" "http://www.w3.org/Graphics/SVG/1.1/DTD/svg11.dtd">
<svg version="1.1" xmlns="http://www.w3.org/2000/svg" xmlns:xlink="http://www.w3.org/1999/xlink" preserveAspectRatio="xMidYMid meet" viewBox="267.5565818599182 229.51995496053956 41.386248736097855 40.80485338726072" width="37.39" height="36.8"><defs><path d="M303.79 230.52C304.98 230.52 305.94 231.48 305.94 232.67C305.94 239.6 305.94 258.25 305.94 265.18C305.94 266.36 304.98 267.32 303.79 267.32C296.75 267.32 277.75 267.32 270.71 267.32C269.52 267.32 268.56 266.36 268.56 265.18C268.56 258.25 268.56 239.6 268.56 232.67C268.56 231.48 269.52 230.52 270.71 230.52C277.75 230.52 296.75 230.52 303.79 230.52Z" id="a193JPpklA"></path><path d="M272.25 234L287.25 234L302.25 234C302.25 243.3 302.25 248.46 302.25 249.5C302.25 262.6 302.05 265 300.75 265C299.65 265 299.25 263.9 299.25 261.2C299.25 257.3 297.85 255 295.55 255C294.65 255 294.25 256.5 294.25 259.5C294.25 262.7 293.75 264.2 292.75 264.7C290.65 265.4 289.85 264.5 289.65 261.2C289.55 259.7 289.45 257.7 289.35 256.8C289.35 255.7 288.45 255 287.35 255C285.65 255 285.35 255.8 285.05 259.8C284.75 263.8 284.45 264.5 282.55 264.8C280.55 265.1 280.35 264.6 280.05 260.3C279.75 256.3 279.45 255.5 277.75 255.5C276.05 255.5 275.75 256.3 275.45 260.3C275.25 263.6 274.75 265 273.65 265C272.45 265 272.25 262.3 272.25 249.5C272.25 247.43 272.25 242.26 272.25 234ZM286.65 247C285.85 247 285.25 247.8 285.25 248.8C285.25 252.1 287.55 253.2 288.65 250.4C289.45 248.4 288.55 247 286.65 247ZM279.05 239.7C277.15 239.1 275.25 240 275.25 241.5C275.25 242.2 275.85 243 276.55 243.3C278.35 243.9 280.25 243 280.25 241.5C280.25 240.8 279.65 240 279.05 239.7ZM295.15 239.7C293.85 241 294.65 244 296.25 244C296.85 244 297.55 243.3 297.95 242.4C298.75 240.3 296.65 238.2 295.15 239.7Z" id="b71WVhKVZ"></path></defs><g><g><use xlink:href="#a193JPpklA" opacity="1" fill="#474747" fill-opacity="1"></use></g><g><use xlink:href="#b71WVhKVZ" opacity="1" fill="#ffffff" fill-opacity="1"></use><g><use xlink:href="#b71WVhKVZ" opacity="1" fill-opacity="0" stroke="#000000" stroke-width="1" stroke-opacity="0"></use></g></g></g></svg>